<svg version="1.1" viewBox="0 0 800 800" xmlns="http://www.w3.org/2000/svg"><defs><style>.cls-1{fill:#fff200;}.cls-2{fill:#010101;}.cls-3{fill:#fff;}.cls-4{fill:#030303;}</style></defs><g transform="matrix(2.8557 0 0 2.8557 119.8 75.01)" style="stroke-width:.35018" data-name="Layer 2"><g style="stroke-width:.35018" data-name="Isolation Mode"><path class="cls-1" d="m177.74 55.14c-6.96-15.06-24.93-50.14-68.19-54.56s-74.25 16.26-92.55 62.42c-12.49 31.42-19.07 63.7-16.42 94.16 2.2 25.34 6.33 40.8 29.86 51.48q4.68 2.12 10.22 4a127.62 127.62 0 0 0 17 7.54c10 3.7 27.87 7.43 45 7.43 12.51 0 23.32-1.91 32.14-5.67a91.16 91.16 0 0 0 11.81-6l2.12-0.75c0.09 0 0.16-0.07 0.25-0.09 32.73-12.13 43.71-31.56 46.46-59 4.22-42.44-9.24-82.64-17.7-100.96z" style="stroke-width:.35018"/><path class="cls-2" d="m186.56 152.19c-2.5 24.95-12.48 42.61-42.21 53.63-0.09 0-0.15 0.06-0.23 0.08a154.73 154.73 0 0 1-18.76 5.44 1.75 1.75 0 0 1-0.79 0 1.8 1.8 0 0 1-0.42-3.26c36.21-21.7 33.1-64.58 10.3-76.24-3.09-1.58-4.19-4.69 1-6 28.08-6.84 20.15-48.84 4.46-57.44-16.67-9.16-27.77 7.76-32.53 17.51s-15.2 20.45-32.63 2.9-37.16-4.28-37.43 14.42 17.51 23.5 17.51 23.5c3.19 0.8 5.12 3.21 1.67 6.59s-48.66 45.28 11.14 72.56a1.78 1.78 0 0 1-1 3.37 195.84 195.84 0 0 1-19.14-5.1h-0.13a110 110 0 0 1-10.75-4.15c-21.38-9.71-25.13-23.76-27.13-46.78-2.41-27.67 3.57-57 14.89-85.53 16.62-42 44.83-60.77 84.12-56.77s55.65 35.89 62 49.58c7.69 16.65 19.92 53.18 16.09 91.69" style="stroke-width:.35018"/><path class="cls-2" d="m102.26 217.22c-15.61 0-31.81-3.39-40.94-6.75-22.06-8.11-34.21-18.19-36.1-30-3-18.6 21.11-33.16 21.36-33.3a9.76 9.76 0 0 0 2.18-1.74c-9.15-0.89-25.36-6.38-25.06-21.4 0.3-12.03 12.2-21.19 27.79-21.19a44.21 44.21 0 0 1 26 8.75c5.44 3.92 10.73 6 15.32 6a16.25 16.25 0 0 0 13-6.9c4.55-6.67 14-20.55 31.57-20.55a35.46 35.46 0 0 1 13 2.57c12.65 5 20.65 18.59 18.22 31-1.94 9.9-10.21 17.17-22.89 20.32 10.78 6 17.82 16.17 18.58 27.42 1.11 16.45-10.85 31.26-32.83 40.64-8 3.42-17.84 5.15-29.2 5.15z" style="stroke-width:.35018"/><path class="cls-3" d="m100.4 216.1c-13.05 0-26.6-4.09-34.24-8.15-18.46-9.81-28.62-21.95-30.16-36.24-2.5-22.48 17.66-40.08 17.86-40.25a9.45 9.45 0 0 0 1.83-2.1c-7.66-1.09-21.22-7.72-21-25.88 0.21-14.62 10.21-25.65 23.25-25.65 5.28 0 13.35 1.84 21.74 10.58 4.55 4.74 9 7.25 12.81 7.25 5.11 0 9.06-4.5 10.88-8.35 3.8-8.06 11.72-24.84 26.42-24.84a21.94 21.94 0 0 1 10.89 3.11c10.58 6 17.28 22.47 15.24 37.46-1.63 12-8.54 20.76-19.15 24.56 9 7.25 14.91 19.55 15.55 33.15 0.93 19.88-9.09 37.79-27.48 49.13-6.7 4.13-14.91 6.22-24.42 6.22z" style="stroke-width:.35018"/><path class="cls-4" d="m86.17 178c-5.7 0.49-16.35 0.71-15-4.81 2.28-9.63 11.33-2.56 15.87 1.74a1.76 1.76 0 0 1-0.82 3.07m12.27 0.23a2.21 2.21 0 0 1-1.34-3.79c5.62-5.52 17-14.64 20.79-2.74 2.18 6.83-11.89 6.95-19.45 6.53m27.65-63.23a49.4 49.4 0 0 1-12.91 10.87 48.63 48.63 0 0 1 8.73 7.5 7.85 7.85 0 0 1-0.2 10.83 7.46 7.46 0 0 1-5.3 2.2 7.5 7.5 0 0 1-5.5-2.41c-5.59-6-11.77-9.18-17.86-9.18h-0.3c-5.29 0.09-10.26 2.64-14.39 7.38a7.54 7.54 0 0 1-5.68 2.59 7.83 7.83 0 0 1-1.08-0.07 7.59 7.59 0 0 1-4-1.95 7.86 7.86 0 0 1-0.55-10.83 39.53 39.53 0 0 1 6.27-5.93 41.34 41.34 0 0 1-10.45-9.1 7.85 7.85 0 0 1 0.84-10.8 7.49 7.49 0 0 1 10.78 0.87 23.59 23.59 0 0 0 18.13 9c8 0 16-4.07 22-11.17a7.49 7.49 0 0 1 10.79-0.72 7.86 7.86 0 0 1 0.7 10.82" style="stroke-width:.35018"/></g></g></svg>
