<svg id="Layer_1" data-name="Layer 1" xmlns="http://www.w3.org/2000/svg" xmlns:xlink="http://www.w3.org/1999/xlink" viewBox="0 0 800 800"><defs><style>.cls-1{fill:none;}.cls-2{clip-path:url(#clip-path);}.cls-3{fill:url(#linear-gradient);}.cls-4{clip-path:url(#clip-path-2);}.cls-5{fill:#060d18;}.cls-6{fill:#d5d6d5;}</style><clipPath id="clip-path"><path class="cls-1" d="M217.31,0V137.93a27.59,27.59,0,0,1-27.58,27.59H38v606.9A27.67,27.67,0,0,0,65.59,800H644.9a27.67,27.67,0,0,0,27.59-27.59V27.59A27.67,27.67,0,0,0,644.9,0Z"/></clipPath><linearGradient id="linear-gradient" x1="6574.92" y1="6769.72" x2="6576.78" y2="6769.72" gradientTransform="matrix(0, 370.81, 370.81, 0, -2509936.1, -2438005.64)" gradientUnits="userSpaceOnUse"><stop offset="0" stop-color="#899098"/><stop offset="1" stop-color="#676767"/></linearGradient><clipPath id="clip-path-2"><rect class="cls-1" x="38" width="723.21" height="800"/></clipPath></defs><title>Daftar</title><g class="cls-2"><rect class="cls-3" x="38" width="634.48" height="800"/></g><g class="cls-4"><polygon class="cls-5" points="249.35 726.6 268.85 590.05 356.63 619.31 385.91 707.09 249.35 726.6"/><rect class="cls-5" x="611.91" y="253.71" width="55.17" height="165.52" transform="translate(-50.62 550.74) rotate(-45)"/><path class="cls-6" d="M669.64,215.17a78.15,78.15,0,0,0-13.79,2.62A82.63,82.63,0,0,0,620,238.9l-19.44,19.59,117,117L736.95,356a82.76,82.76,0,0,0-67.31-140.83"/><path class="cls-6" d="M561.53,297.38,268.84,590.07,347,629,522.45,453.49,347,629l17.61,35.21L386,707l283.71-283.7,8.83-8.83L655.9,391.85Zm1.25,115.78,19.52-19.5Z"/><path class="cls-6" d="M217.31,137.93V0L38,165.52H189.72a27.59,27.59,0,0,0,27.59-27.59"/><path class="cls-5" d="M424.21,372.41H134.55a13.79,13.79,0,0,1,0-27.59H424.21a13.79,13.79,0,0,1,0,27.59"/><path class="cls-5" d="M341.45,455.17H134.55a13.79,13.79,0,0,1,0-27.59h206.9a13.79,13.79,0,0,1,0,27.59"/><path class="cls-5" d="M258.69,537.93H134.55a13.79,13.79,0,0,1,0-27.59H258.69a13.79,13.79,0,0,1,0,27.59"/><path class="cls-5" d="M507,289.65H244.9a13.79,13.79,0,1,1,0-27.59H507a13.79,13.79,0,0,1,0,27.59"/><path class="cls-5" d="M189.72,289.65H134.55a13.79,13.79,0,1,1,0-27.59h55.17a13.79,13.79,0,0,1,0,27.59"/></g></svg>